STARTFONT 2.1
COMMENT Created by fdbbdf
FONT zipicn20
SIZE 20 78 78
FONTBOUNDINGBOX 21 20 -10 -10
STARTPROPERTIES 4
Ownership "  "
FONT_ASCENT 10
FONT_DESCENT 10
DEFAULT_CHAR 32
ENDPROPERTIES
CHARS 120
STARTCHAR ch-0
ENCODING -1 0
SWIDTH 0 0
DWIDTH 9 0
BBX 0 0 0 0
BITMAP
ENDCHAR
STARTCHAR ch-1
ENCODING -1 1
SWIDTH 0 0
DWIDTH 6 0
BBX 0 0 0 0
BITMAP
ENDCHAR
STARTCHAR ch-2
ENCODING -1 2
SWIDTH 0 0
DWIDTH 7 0
BBX 0 0 0 0
BITMAP
ENDCHAR
STARTCHAR ch-3
ENCODING -1 3
SWIDTH 0 0
DWIDTH 9 0
BBX 0 0 0 0
BITMAP
ENDCHAR
STARTCHAR ch-4
ENCODING -1 4
SWIDTH 0 0
DWIDTH 7 0
BBX 0 0 0 0
BITMAP
ENDCHAR
STARTCHAR ch-5
ENCODING -1 5
SWIDTH 0 0
DWIDTH 9 0
BBX 0 0 0 0
BITMAP
ENDCHAR
STARTCHAR ch-6
ENCODING -1 6
SWIDTH 0 0
DWIDTH 7 0
BBX 0 0 0 0
BITMAP
ENDCHAR
STARTCHAR ch-7
ENCODING -1 7
SWIDTH 0 0
DWIDTH 9 0
BBX 0 0 0 0
BITMAP
ENDCHAR
STARTCHAR ch-8
ENCODING -1 8
SWIDTH 0 0
DWIDTH 7 0
BBX 0 0 0 0
BITMAP
ENDCHAR
STARTCHAR ch-9
ENCODING -1 9
SWIDTH 0 0
DWIDTH 9 0
BBX 0 0 0 0
BITMAP
ENDCHAR
STARTCHAR ch-10
ENCODING -1 10
SWIDTH 0 0
DWIDTH 9 0
BBX 0 0 0 0
BITMAP
ENDCHAR
STARTCHAR ch-11
ENCODING -1 11
SWIDTH 0 0
DWIDTH 3 0
BBX 0 0 0 0
BITMAP
ENDCHAR
STARTCHAR ch-12
ENCODING -1 12
SWIDTH 0 0
DWIDTH 3 0
BBX 0 0 0 0
BITMAP
ENDCHAR
STARTCHAR ch-13
ENCODING -1 13
SWIDTH 0 0
DWIDTH 9 0
BBX 0 0 0 0
BITMAP
ENDCHAR
STARTCHAR ch-14
ENCODING -1 14
SWIDTH 0 0
DWIDTH 4 0
BBX 0 0 0 0
BITMAP
ENDCHAR
STARTCHAR ch-15
ENCODING -1 15
SWIDTH 0 0
DWIDTH 5 0
BBX 0 0 0 0
BITMAP
ENDCHAR
STARTCHAR ch-16
ENCODING -1 16
SWIDTH 0 0
DWIDTH 5 0
BBX 0 0 0 0
BITMAP
ENDCHAR
STARTCHAR ch-17
ENCODING -1 17
SWIDTH 0 0
DWIDTH 5 0
BBX 0 0 0 0
BITMAP
ENDCHAR
STARTCHAR ch-18
ENCODING -1 18
SWIDTH 0 0
DWIDTH 7 0
BBX 0 0 0 0
BITMAP
ENDCHAR
STARTCHAR ch-19
ENCODING -1 19
SWIDTH 0 0
DWIDTH 7 0
BBX 0 0 0 0
BITMAP
ENDCHAR
STARTCHAR ch-20
ENCODING -1 20
SWIDTH 0 0
DWIDTH 2 0
BBX 0 0 0 0
BITMAP
ENDCHAR
STARTCHAR ch-21
ENCODING -1 21
SWIDTH 0 0
DWIDTH 9 0
BBX 0 0 0 0
BITMAP
ENDCHAR
STARTCHAR ch-22
ENCODING -1 22
SWIDTH 0 0
DWIDTH 9 0
BBX 0 0 0 0
BITMAP
ENDCHAR
STARTCHAR ch-23
ENCODING -1 23
SWIDTH 0 0
DWIDTH 3 0
BBX 0 0 0 0
BITMAP
ENDCHAR
STARTCHAR ch-24
ENCODING -1 24
SWIDTH 0 0
DWIDTH 2 0
BBX 0 0 0 0
BITMAP
ENDCHAR
STARTCHAR ch-25
ENCODING -1 25
SWIDTH 0 0
DWIDTH 9 0
BBX 0 0 0 0
BITMAP
ENDCHAR
STARTCHAR ch-26
ENCODING -1 26
SWIDTH 0 0
DWIDTH 7 0
BBX 0 0 0 0
BITMAP
ENDCHAR
STARTCHAR ch-27
ENCODING -1 27
SWIDTH 0 0
DWIDTH 2 0
BBX 0 0 0 0
BITMAP
ENDCHAR
STARTCHAR ch-28
ENCODING -1 28
SWIDTH 0 0
DWIDTH 2 0
BBX 0 0 0 0
BITMAP
ENDCHAR
STARTCHAR ch-29
ENCODING -1 29
SWIDTH 0 0
DWIDTH 2 0
BBX 0 0 0 0
BITMAP
ENDCHAR
STARTCHAR ch-30
ENCODING -1 30
SWIDTH 0 0
DWIDTH 7 0
BBX 0 0 0 0
BITMAP
ENDCHAR
STARTCHAR ch-31
ENCODING -1 31
SWIDTH 0 0
DWIDTH 2 0
BBX 0 0 0 0
BITMAP
ENDCHAR
STARTCHAR sp
ENCODING -1 32
SWIDTH 0 0
DWIDTH 9 0
BBX 0 0 0 0
BITMAP
ENDCHAR
STARTCHAR !
ENCODING -1 33
SWIDTH 0 0
DWIDTH 3 0
BBX 0 0 0 0
BITMAP
ENDCHAR
STARTCHAR "
ENCODING -1 34
SWIDTH 0 0
DWIDTH 8 0
BBX 0 0 0 0
BITMAP
ENDCHAR
STARTCHAR #
ENCODING -1 35
SWIDTH 0 0
DWIDTH 9 0
BBX 0 0 0 0
BITMAP
ENDCHAR
STARTCHAR $
ENCODING -1 36
SWIDTH 0 0
DWIDTH 8 0
BBX 0 0 0 0
BITMAP
ENDCHAR
STARTCHAR %
ENCODING -1 37
SWIDTH 0 0
DWIDTH 9 0
BBX 0 0 0 0
BITMAP
ENDCHAR
STARTCHAR &
ENCODING -1 38
SWIDTH 0 0
DWIDTH 9 0
BBX 0 0 0 0
BITMAP
ENDCHAR
STARTCHAR '
ENCODING -1 39
SWIDTH 0 0
DWIDTH 3 0
BBX 0 0 0 0
BITMAP
ENDCHAR
STARTCHAR (
ENCODING -1 40
SWIDTH 0 0
DWIDTH 5 0
BBX 0 0 0 0
BITMAP
ENDCHAR
STARTCHAR )
ENCODING -1 41
SWIDTH 0 0
DWIDTH 5 0
BBX 0 0 0 0
BITMAP
ENDCHAR
STARTCHAR *
ENCODING -1 42
SWIDTH 0 0
DWIDTH 8 0
BBX 0 0 0 0
BITMAP
ENDCHAR
STARTCHAR +
ENCODING -1 43
SWIDTH 0 0
DWIDTH 8 0
BBX 0 0 0 0
BITMAP
ENDCHAR
STARTCHAR ,
ENCODING -1 44
SWIDTH 0 0
DWIDTH 4 0
BBX 0 0 0 0
BITMAP
ENDCHAR
STARTCHAR -
ENCODING -1 45
SWIDTH 0 0
DWIDTH 7 0
BBX 0 0 0 0
BITMAP
ENDCHAR
STARTCHAR .
ENCODING -1 46
SWIDTH 0 0
DWIDTH 4 0
BBX 0 0 0 0
BITMAP
ENDCHAR
STARTCHAR /
ENCODING -1 47
SWIDTH 0 0
DWIDTH 7 0
BBX 0 0 0 0
BITMAP
ENDCHAR
STARTCHAR 1
ENCODING -1 49
SWIDTH 0 0
DWIDTH 7 0
BBX 5 5 -2 -3
BITMAP
7000
f800
f800
f800
7000
ENDCHAR
STARTCHAR 2
ENCODING -1 50
SWIDTH 0 0
DWIDTH 7 0
BBX 9 9 -4 -5
BITMAP
3e00
4100
9c80
be80
be80
be80
9c80
4100
3e00
ENDCHAR
STARTCHAR 3
ENCODING -1 51
SWIDTH 0 0
DWIDTH 7 0
BBX 9 9 -4 -5
BITMAP
3e00
7f00
e380
c180
c180
c180
e380
7f00
3e00
ENDCHAR
STARTCHAR 4
ENCODING -1 52
SWIDTH 0 0
DWIDTH 8 0
BBX 0 0 0 0
BITMAP
ENDCHAR
STARTCHAR 5
ENCODING -1 53
SWIDTH 0 0
DWIDTH 7 0
BBX 0 0 0 0
BITMAP
ENDCHAR
STARTCHAR 6
ENCODING -1 54
SWIDTH 0 0
DWIDTH 13 0
BBX 20 20 -10 -10
BITMAP
00000000
00080000
001c0000
007e0000
00e30000
03818000
76dbc000
5c006000
70003000
e0003000
e0007000
6000e000
10018000
48072000
440c2000
76fb6000
01600000
01c00000
00800000
00000000
ENDCHAR
STARTCHAR 7
ENCODING -1 55
SWIDTH 0 0
DWIDTH 7 0
BBX 0 0 0 0
BITMAP
ENDCHAR
STARTCHAR 8
ENCODING -1 56
SWIDTH 0 0
DWIDTH 7 0
BBX 0 0 0 0
BITMAP
ENDCHAR
STARTCHAR 9
ENCODING -1 57
SWIDTH 0 0
DWIDTH 7 0
BBX 0 0 0 0
BITMAP
ENDCHAR
STARTCHAR :
ENCODING -1 58
SWIDTH 0 0
DWIDTH 3 0
BBX 0 0 0 0
BITMAP
ENDCHAR
STARTCHAR ;
ENCODING -1 59
SWIDTH 0 0
DWIDTH 3 0
BBX 0 0 0 0
BITMAP
ENDCHAR
STARTCHAR <
ENCODING -1 60
SWIDTH 0 0
DWIDTH 6 0
BBX 0 0 0 0
BITMAP
ENDCHAR
STARTCHAR =
ENCODING -1 61
SWIDTH 0 0
DWIDTH 8 0
BBX 0 0 0 0
BITMAP
ENDCHAR
STARTCHAR >
ENCODING -1 62
SWIDTH 0 0
DWIDTH 6 0
BBX 0 0 0 0
BITMAP
ENDCHAR
STARTCHAR ?
ENCODING -1 63
SWIDTH 0 0
DWIDTH 7 0
BBX 0 0 0 0
BITMAP
ENDCHAR
STARTCHAR @
ENCODING -1 64
SWIDTH 0 0
DWIDTH 12 0
BBX 20 20 -10 -10
BITMAP
00000000
03fc0000
0fff0000
1c038000
3801c000
7001c000
70038000
00070000
000e0000
001c0000
00380000
00700000
00600000
00600000
00600000
00600000
00600000
00f00000
00f00000
00600000
ENDCHAR
STARTCHAR A
ENCODING -1 65
SWIDTH 0 0
DWIDTH 12 0
BBX 20 20 -10 -10
BITMAP
00000000
00000000
00000000
00000000
00000000
00000000
1c03f000
3e03f000
77033000
63007000
7f78e000
7f79c000
6303b000
f783f000
f783f000
00000000
00000000
00000000
00000000
00000000
ENDCHAR
STARTCHAR B
ENCODING -1 66
SWIDTH 0 0
DWIDTH 12 0
BBX 20 20 -10 -10
BITMAP
00000000
75554000
60000000
40000000
00000000
40000000
0e07e000
1f07e000
3b866000
3180e000
3fb1c000
3fb38000
31876000
7bc7e000
7bc7e000
00000000
00002000
00006000
2aaae000
00000000
ENDCHAR
STARTCHAR C
ENCODING -1 67
SWIDTH 0 0
DWIDTH 12 0
BBX 20 20 -10 -10
BITMAP
00000000
00000000
00000000
00000000
00000000
00000000
00000000
00018000
00078000
001e0000
00780000
01e00000
07800000
1e000000
38000000
00000000
00000000
00000000
00000000
00000000
ENDCHAR
STARTCHAR D
ENCODING -1 68
SWIDTH 0 0
DWIDTH 12 0
BBX 20 20 -10 -10
BITMAP
00000000
06000000
03000000
01800000
00c00000
007f0000
003f8000
0000c000
00006000
0000c000
00018000
00030000
00060000
03fc0000
07f80000
0c000000
18000000
0c000000
06000000
00000000
ENDCHAR
STARTCHAR E
ENCODING -1 69
SWIDTH 0 0
DWIDTH 12 0
BBX 20 20 -10 -10
BITMAP
00000000
7c000000
7c000000
70000000
60000000
60000000
00000000
00000000
0e738000
0e738000
0e738000
0e738000
00000000
00000000
00006000
00006000
0000e000
0003e000
0003e000
00000000
ENDCHAR
STARTCHAR F
ENCODING -1 70
SWIDTH 0 0
DWIDTH 12 0
BBX 20 20 -10 -10
BITMAP
00000000
67c00000
6fc00000
78600000
30600000
00600000
0fc00000
1f800000
181c0000
187f0000
38630000
70630000
60618000
61c7b000
61cf3000
670c3000
670f3000
7c07f000
3c00e000
00000000
ENDCHAR
STARTCHAR G
ENCODING -1 71
SWIDTH 0 0
DWIDTH 12 0
BBX 20 20 -10 -10
BITMAP
00000000
00000000
00000000
00000000
7fffe000
7fffe000
60006000
60006000
60006000
60006000
60006000
60006000
60006000
60006000
7fffe000
7fffe000
00000000
00000000
00000000
00000000
ENDCHAR
STARTCHAR H
ENCODING -1 72
SWIDTH 0 0
DWIDTH 12 0
BBX 20 20 -10 -10
BITMAP
00000000
00000000
00000000
00000000
0fff0000
1fff8000
3801c000
7000e000
60006000
60006000
60006000
60006000
7000e000
3801c000
1fff8000
0fff0000
00000000
00000000
00000000
00000000
ENDCHAR
STARTCHAR I
ENCODING -1 73
SWIDTH 0 0
DWIDTH 12 0
BBX 20 20 -10 -10
BITMAP
00000000
00000000
00000000
00000000
0fff0000
3fffc000
3000c000
60006000
60006000
60006000
60006000
60006000
60006000
3000c000
3fffc000
0fff0000
00000000
00000000
00000000
00000000
ENDCHAR
STARTCHAR J
ENCODING -1 74
SWIDTH 0 0
DWIDTH 12 0
BBX 20 20 -10 -10
BITMAP
00000000
00000000
01f80000
07fe0000
0e070000
18018000
18018000
3000c000
3000c000
3000c000
3000c000
3000c000
3000c000
18018000
18018000
0e070000
07fe0000
01f80000
00000000
00000000
ENDCHAR
STARTCHAR K
ENCODING -1 75
SWIDTH 0 0
DWIDTH 12 0
BBX 20 20 -10 -10
BITMAP
00000000
00000000
00000000
00000000
01f80000
07fe0000
1e070000
18018000
3000c000
3000c000
3000c000
18018000
0e070000
07fe0000
01f80000
00000000
00000000
00000000
00000000
00000000
ENDCHAR
STARTCHAR L
ENCODING -1 76
SWIDTH 0 0
DWIDTH 12 0
BBX 20 20 -10 -10
BITMAP
00000000
00000000
00000000
001c0000
007c0000
01e00000
07800000
0e000000
1c000000
38000000
30000000
30000000
38000000
1e000000
06000000
00000000
00000000
00000000
00000000
00000000
ENDCHAR
STARTCHAR M
ENCODING -1 77
SWIDTH 0 0
DWIDTH 12 0
BBX 20 20 -10 -10
BITMAP
00000000
00000000
00000000
00000000
00000000
00000000
00000000
00000000
00700000
00f80000
00f80000
00f80000
00700000
00000000
00000000
00000000
00000000
00000000
00000000
00000000
ENDCHAR
STARTCHAR N
ENCODING -1 78
SWIDTH 0 0
DWIDTH 12 0
BBX 20 20 -10 -10
BITMAP
00000000
00000000
03fc0000
07fe0000
0c030000
18018000
3000c000
630c6000
638c6000
63ec6000
637c6000
631c6000
630c6000
60006000
3000c000
18018000
0c030000
07fe0000
03fc0000
00000000
ENDCHAR
STARTCHAR O
ENCODING -1 79
SWIDTH 0 0
DWIDTH 13 0
BBX 20 20 -9 -10
BITMAP
00000000
01f00000
03f80000
03180000
03180000
03180000
03180000
03180000
03180000
03180000
03180000
03180000
1e0f0000
0c060000
060c0000
03180000
01b00000
00e00000
00400000
00000000
ENDCHAR
STARTCHAR P
ENCODING -1 80
SWIDTH 0 0
DWIDTH 12 0
BBX 20 20 -10 -10
BITMAP
00000000
007c0000
00fe0000
00820000
01830000
01830000
03030000
03018000
06018000
06018000
0c018000
0c00c000
1800c000
1800c000
3000c000
30006000
60006000
7fffe000
7fffe000
00000000
ENDCHAR
STARTCHAR Q
ENCODING -1 81
SWIDTH 0 0
DWIDTH 12 0
BBX 20 20 -10 -10
BITMAP
00000000
7c000000
7c000000
70000000
60000000
60000000
00000000
3d144000
2516c000
20a54000
3c444000
04444000
24444000
3c444000
00006000
00006000
0000e000
0003e000
0003e000
00000000
ENDCHAR
STARTCHAR R
ENCODING -1 82
SWIDTH 0 0
DWIDTH 9 0
BBX 0 0 0 0
BITMAP
ENDCHAR
STARTCHAR S
ENCODING -1 83
SWIDTH 0 0
DWIDTH 7 0
BBX 0 0 0 0
BITMAP
ENDCHAR
STARTCHAR T
ENCODING -1 84
SWIDTH 0 0
DWIDTH 7 0
BBX 0 0 0 0
BITMAP
ENDCHAR
STARTCHAR U
ENCODING -1 85
SWIDTH 0 0
DWIDTH 9 0
BBX 0 0 0 0
BITMAP
ENDCHAR
STARTCHAR V
ENCODING -1 86
SWIDTH 0 0
DWIDTH 9 0
BBX 0 0 0 0
BITMAP
ENDCHAR
STARTCHAR W
ENCODING -1 87
SWIDTH 0 0
DWIDTH 9 0
BBX 0 0 0 0
BITMAP
ENDCHAR
STARTCHAR X
ENCODING -1 88
SWIDTH 0 0
DWIDTH 9 0
BBX 0 0 0 0
BITMAP
ENDCHAR
STARTCHAR Y
ENCODING -1 89
SWIDTH 0 0
DWIDTH 9 0
BBX 0 0 0 0
BITMAP
ENDCHAR
STARTCHAR Z
ENCODING -1 90
SWIDTH 0 0
DWIDTH 7 0
BBX 0 0 0 0
BITMAP
ENDCHAR
STARTCHAR \
ENCODING -1 92
SWIDTH 0 0
DWIDTH 7 0
BBX 0 0 0 0
BITMAP
ENDCHAR
STARTCHAR ^
ENCODING -1 94
SWIDTH 0 0
DWIDTH 8 0
BBX 0 0 0 0
BITMAP
ENDCHAR
STARTCHAR _
ENCODING -1 95
SWIDTH 0 0
DWIDTH 9 0
BBX 0 0 0 0
BITMAP
ENDCHAR
STARTCHAR `
ENCODING -1 96
SWIDTH 0 0
DWIDTH 3 0
BBX 0 0 0 0
BITMAP
ENDCHAR
STARTCHAR b
ENCODING -1 98
SWIDTH 0 0
DWIDTH 8 0
BBX 0 0 0 0
BITMAP
ENDCHAR
STARTCHAR c
ENCODING -1 99
SWIDTH 0 0
DWIDTH 7 0
BBX 0 0 0 0
BITMAP
ENDCHAR
STARTCHAR d
ENCODING -1 100
SWIDTH 0 0
DWIDTH 8 0
BBX 0 0 0 0
BITMAP
ENDCHAR
STARTCHAR e
ENCODING -1 101
SWIDTH 0 0
DWIDTH 8 0
BBX 0 0 0 0
BITMAP
ENDCHAR
STARTCHAR f
ENCODING -1 102
SWIDTH 0 0
DWIDTH 8 0
BBX 0 0 0 0
BITMAP
ENDCHAR
STARTCHAR g
ENCODING -1 103
SWIDTH 0 0
DWIDTH 11 0
BBX 0 0 0 0
BITMAP
ENDCHAR
STARTCHAR h
ENCODING -1 104
SWIDTH 0 0
DWIDTH 9 0
BBX 0 0 0 0
BITMAP
ENDCHAR
STARTCHAR i
ENCODING -1 105
SWIDTH 0 0
DWIDTH 5 0
BBX 0 0 0 0
BITMAP
ENDCHAR
STARTCHAR j
ENCODING -1 106
SWIDTH 0 0
DWIDTH 6 0
BBX 0 0 0 0
BITMAP
ENDCHAR
STARTCHAR k
ENCODING -1 107
SWIDTH 0 0
DWIDTH 9 0
BBX 0 0 0 0
BITMAP
ENDCHAR
STARTCHAR l
ENCODING -1 108
SWIDTH 0 0
DWIDTH 5 0
BBX 0 0 0 0
BITMAP
ENDCHAR
STARTCHAR m
ENCODING -1 109
SWIDTH 0 0
DWIDTH 9 0
BBX 0 0 0 0
BITMAP
ENDCHAR
STARTCHAR n
ENCODING -1 110
SWIDTH 0 0
DWIDTH 9 0
BBX 0 0 0 0
BITMAP
ENDCHAR
STARTCHAR o
ENCODING -1 111
SWIDTH 0 0
DWIDTH 7 0
BBX 0 0 0 0
BITMAP
ENDCHAR
STARTCHAR p
ENCODING -1 112
SWIDTH 0 0
DWIDTH 7 0
BBX 0 0 0 0
BITMAP
ENDCHAR
STARTCHAR q
ENCODING -1 113
SWIDTH 0 0
DWIDTH 8 0
BBX 0 0 0 0
BITMAP
ENDCHAR
STARTCHAR r
ENCODING -1 114
SWIDTH 0 0
DWIDTH 7 0
BBX 0 0 0 0
BITMAP
ENDCHAR
STARTCHAR s
ENCODING -1 115
SWIDTH 0 0
DWIDTH 4 0
BBX 0 0 0 0
BITMAP
ENDCHAR
STARTCHAR t
ENCODING -1 116
SWIDTH 0 0
DWIDTH 8 0
BBX 0 0 0 0
BITMAP
ENDCHAR
STARTCHAR u
ENCODING -1 117
SWIDTH 0 0
DWIDTH 9 0
BBX 0 0 0 0
BITMAP
ENDCHAR
STARTCHAR v
ENCODING -1 118
SWIDTH 0 0
DWIDTH 9 0
BBX 0 0 0 0
BITMAP
ENDCHAR
STARTCHAR w
ENCODING -1 119
SWIDTH 0 0
DWIDTH 10 0
BBX 0 0 0 0
BITMAP
ENDCHAR
STARTCHAR z
ENCODING -1 122
SWIDTH 0 0
DWIDTH 7 0
BBX 0 0 0 0
BITMAP
ENDCHAR
STARTCHAR {
ENCODING -1 123
SWIDTH 0 0
DWIDTH 8 0
BBX 0 0 0 0
BITMAP
ENDCHAR
STARTCHAR }
ENCODING -1 125
SWIDTH 0 0
DWIDTH 8 0
BBX 0 0 0 0
BITMAP
ENDCHAR
STARTCHAR ~
ENCODING -1 126
SWIDTH 0 0
DWIDTH 8 0
BBX 0 0 0 0
BITMAP
ENDCHAR
ENDFONT
